<svg xmlns="http://www.w3.org/2000/svg" xmlns:xlink="http://www.w3.org/1999/xlink" width="500" zoomAndPan="magnify" viewBox="0 0 375 374.999991" height="500" preserveAspectRatio="xMidYMid meet" version="1.0"><defs><clipPath id="d574bf898f"><path d="M 20.855469 116 L 353.855469 116 L 353.855469 295.386719 L 20.855469 295.386719 Z M 20.855469 116 " clip-rule="nonzero"/></clipPath><clipPath id="ccab56ba52"><path d="M 45 79.386719 L 330 79.386719 L 330 276 L 45 276 Z M 45 79.386719 " clip-rule="nonzero"/></clipPath></defs><g clip-path="url(#d574bf898f)"><path fill="#ffffff" d="M 334.214844 116.753906 L 334.152344 117.3125 L 321.734375 254.941406 L 321.195312 261.210938 L 314.925781 260.394531 L 310.25 259.777344 C 300.894531 258.570312 291.699219 257.929688 282.910156 257.929688 C 240.511719 257.929688 214.722656 272.253906 203.140625 280.789062 L 187.503906 281.972656 L 187.464844 281.972656 L 171.824219 280.789062 C 160.242188 272.253906 134.453125 257.929688 92.058594 257.929688 C 83.265625 257.929688 74.070312 258.570312 64.71875 259.777344 L 60.039062 260.394531 L 53.773438 261.210938 L 53.230469 254.941406 L 40.8125 117.3125 L 40.753906 116.753906 L 20.960938 116.753906 L 41.140625 272.621094 L 174.171875 295.613281 L 200.792969 295.613281 L 333.824219 272.621094 L 354.003906 116.753906 L 334.214844 116.753906 " fill-opacity="1" fill-rule="nonzero"/></g><g clip-path="url(#ccab56ba52)"><path fill="#ffffff" d="M 63.359375 108.46875 L 64.117188 116.363281 L 74.285156 223.433594 L 77.796875 223.957031 C 78.433594 224.035156 127.546875 231.582031 160.6875 256.671875 C 144.777344 249.277344 122.25 242.777344 92.328125 242.777344 C 84.507812 242.777344 76.261719 243.222656 67.453125 244.195312 L 55.984375 116.753906 L 55.304688 109.203125 C 58.101562 108.890625 60.757812 108.679688 63.359375 108.46875 Z M 145.707031 108.136719 C 167.730469 119.777344 179.390625 133.128906 182.789062 137.457031 L 182.789062 265.113281 C 154.1875 230.398438 97.527344 218.230469 82.644531 215.574219 L 73.15625 115.449219 L 70.617188 88.769531 C 103.214844 90.34375 127.875 98.6875 145.707031 108.136719 Z M 192.175781 137.457031 C 195.574219 133.128906 207.234375 119.777344 229.261719 108.136719 C 247.089844 98.6875 271.75 90.34375 304.351562 88.769531 L 301.808594 115.449219 L 292.320312 215.574219 C 277.4375 218.230469 220.78125 230.398438 192.175781 265.113281 Z M 310.847656 116.363281 L 311.605469 108.46875 C 314.207031 108.679688 316.867188 108.890625 319.660156 109.203125 L 318.980469 116.753906 L 307.511719 244.195312 C 298.703125 243.222656 290.457031 242.777344 282.636719 242.777344 C 252.71875 242.777344 230.191406 249.277344 214.28125 256.671875 C 247.421875 231.582031 296.53125 224.035156 297.171875 223.957031 L 300.683594 223.433594 Z M 59.246094 254.402344 L 63.941406 253.800781 C 96.074219 249.550781 121.21875 252.90625 140.023438 258.628906 C 141.867188 259.214844 143.652344 259.777344 145.378906 260.394531 C 147.105469 261 148.753906 261.636719 150.363281 262.257812 C 151.976562 262.898438 153.507812 263.539062 155 264.199219 C 162.414062 267.496094 168.351562 271.011719 172.871094 274.097656 C 173.785156 274.734375 174.636719 275.335938 175.414062 275.917969 L 199.550781 275.917969 C 200.328125 275.335938 201.183594 274.734375 202.09375 274.097656 C 206.617188 271.011719 212.554688 267.496094 219.964844 264.199219 C 221.457031 263.539062 222.992188 262.898438 224.601562 262.257812 C 226.214844 261.636719 227.859375 261 229.585938 260.394531 C 231.316406 259.777344 233.101562 259.214844 234.945312 258.628906 C 253.746094 252.90625 278.894531 249.550781 311.027344 253.800781 L 315.722656 254.402344 L 328.121094 116.753906 L 329.515625 101.171875 L 325.132812 100.667969 C 320.707031 100.144531 316.476562 99.714844 312.460938 99.441406 L 314.363281 79.382812 L 309.238281 79.496094 C 264.570312 80.664062 233.625 93.585938 213.582031 106.527344 C 200.425781 115.042969 191.984375 123.5625 187.503906 128.800781 L 187.484375 128.78125 L 187.464844 128.800781 C 182.980469 123.5625 174.539062 115.042969 161.386719 106.527344 C 141.339844 93.585938 110.394531 80.664062 65.726562 79.496094 L 60.605469 79.382812 L 62.503906 99.441406 C 58.488281 99.714844 54.257812 100.144531 49.835938 100.667969 L 45.449219 101.171875 L 46.847656 116.753906 L 59.246094 254.402344 " fill-opacity="1" fill-rule="nonzero"/></g></svg>