<svg xmlns="http://www.w3.org/2000/svg" xmlns:xlink="http://www.w3.org/1999/xlink" width="500" zoomAndPan="magnify" viewBox="0 0 375 374.999991" height="500" preserveAspectRatio="xMidYMid meet" version="1.0"><defs><clipPath id="a481d16313"><path d="M 12.429688 49.035156 L 362.679688 49.035156 L 362.679688 290 L 12.429688 290 Z M 12.429688 49.035156 " clip-rule="nonzero"/></clipPath><clipPath id="821ab07e22"><path d="M 12.429688 307 L 362.679688 307 L 362.679688 325.785156 L 12.429688 325.785156 Z M 12.429688 307 " clip-rule="nonzero"/></clipPath></defs><g clip-path="url(#a481d16313)"><path fill="#ffffff" d="M 215.140625 88.535156 L 215.140625 77.105469 C 215.140625 69.640625 212.191406 62.640625 207.121094 57.664062 C 201.960938 52.40625 194.957031 49.460938 187.496094 49.460938 C 172.292969 49.460938 159.855469 61.90625 159.855469 77.105469 L 159.855469 88.535156 C 76.375 101.800781 12.429688 174.21875 12.429688 261.386719 L 12.433594 279.8125 C 12.433594 284.878906 16.582031 289.03125 21.644531 289.03125 L 353.347656 289.03125 C 358.414062 289.03125 362.5625 284.882812 362.5625 279.8125 L 362.5625 261.386719 C 362.5625 174.21875 298.621094 101.800781 215.140625 88.535156 M 178.285156 77.105469 C 178.285156 72.039062 182.429688 67.894531 187.496094 67.894531 C 189.984375 67.890625 192.195312 68.8125 194.039062 70.746094 C 195.792969 72.410156 196.710938 74.617188 196.710938 77.101562 L 196.710938 86.5 C 193.667969 86.410156 190.542969 86.316406 187.5 86.316406 C 184.460938 86.316406 181.332031 86.40625 178.285156 86.503906 Z M 344.136719 270.601562 L 30.859375 270.601562 L 30.859375 261.386719 C 30.859375 175.046875 101.160156 104.75 187.496094 104.75 C 273.835938 104.746094 344.136719 175.050781 344.136719 261.386719 Z M 344.136719 270.601562 " fill-opacity="1" fill-rule="evenodd"/></g><g clip-path="url(#821ab07e22)"><path fill="#ffffff" d="M 353.347656 325.886719 L 21.644531 325.886719 C 16.554688 325.886719 12.429688 321.761719 12.429688 316.667969 C 12.433594 311.582031 16.554688 307.457031 21.644531 307.457031 L 353.347656 307.453125 C 358.4375 307.453125 362.5625 311.585938 362.5625 316.667969 C 362.5625 321.753906 358.4375 325.886719 353.347656 325.886719 " fill-opacity="1" fill-rule="evenodd"/></g></svg>