<svg xmlns="http://www.w3.org/2000/svg" xmlns:xlink="http://www.w3.org/1999/xlink" width="500" zoomAndPan="magnify" viewBox="0 0 375 374.999991" height="500" preserveAspectRatio="xMidYMid meet" version="1.0"><defs><clipPath id="03b810a6d3"><path d="M 19 73.554688 L 356 73.554688 L 356 301.554688 L 19 301.554688 Z M 19 73.554688 " clip-rule="nonzero"/></clipPath></defs><g clip-path="url(#03b810a6d3)"><path fill="#ffffff" d="M 345.554688 179.21875 C 330.890625 123.289062 313.992188 86.496094 275.0625 75.925781 C 269.121094 74.316406 263.527344 73.53125 257.960938 73.53125 C 246.210938 73.53125 236.761719 77.070312 227.597656 80.496094 C 219.171875 83.648438 209.761719 87.105469 196.742188 88.273438 L 187 88.558594 C 187 88.613281 157.570312 84.296875 147.328125 80.460938 C 138.214844 77.042969 128.78125 73.511719 117.085938 73.511719 C 111.503906 73.511719 105.898438 74.296875 99.960938 75.914062 C 61 86.492188 44.109375 123.28125 29.476562 179.214844 C 12.507812 244 17.199219 287.425781 42.339844 298.375 C 46.433594 300.167969 50.746094 301.078125 55.144531 301.078125 C 77.5 301.078125 98.058594 277.574219 113.074219 260.398438 L 117.160156 255.664062 C 129.40625 241.339844 155.050781 233.132812 187.511719 233.132812 C 222.8125 233.132812 244.507812 240.082031 257.847656 255.683594 L 261.941406 260.429688 C 276.941406 277.585938 297.484375 301.066406 319.855469 301.066406 C 324.28125 301.066406 328.578125 300.160156 332.640625 298.375 C 357.789062 287.429688 362.484375 244.003906 345.554688 179.21875 Z M 134.085938 183.59375 L 117.304688 183.59375 L 117.304688 199.851562 C 117.304688 205.8125 112.058594 210.839844 105.851562 210.839844 C 99.628906 210.839844 94.382812 205.8125 94.382812 199.851562 L 94.382812 183.59375 L 78.617188 183.59375 C 72.671875 183.59375 67.632812 178.34375 67.632812 172.132812 C 67.632812 165.910156 72.664062 160.664062 78.617188 160.664062 L 94.382812 160.664062 L 94.382812 144.390625 C 94.382812 138.4375 99.636719 133.402344 105.851562 133.402344 C 112.058594 133.402344 117.304688 138.4375 117.304688 144.390625 L 117.304688 160.664062 L 134.085938 160.664062 C 140.03125 160.664062 145.070312 165.910156 145.070312 172.132812 C 145.074219 178.347656 140.035156 183.59375 134.085938 183.59375 Z M 253.277344 203.542969 C 243.980469 203.542969 236.425781 195.992188 236.425781 186.699219 C 236.425781 177.410156 243.996094 169.859375 253.277344 169.859375 C 262.558594 169.859375 270.101562 177.414062 270.101562 186.699219 C 270.101562 195.992188 262.550781 203.542969 253.277344 203.542969 Z M 284.695312 172.121094 C 275.40625 172.121094 267.863281 164.558594 267.863281 155.273438 C 267.863281 145.996094 275.417969 138.4375 284.695312 138.4375 C 293.976562 138.4375 301.539062 145.996094 301.542969 155.273438 C 301.542969 164.566406 293.976562 172.121094 284.695312 172.121094 Z M 284.695312 172.121094 " fill-opacity="1" fill-rule="nonzero"/></g></svg>