<svg xmlns="http://www.w3.org/2000/svg" xmlns:xlink="http://www.w3.org/1999/xlink" width="500" zoomAndPan="magnify" viewBox="0 0 375 374.999991" height="500" preserveAspectRatio="xMidYMid meet" version="1.0"><defs><clipPath id="6cdc92a375"><path d="M 13.261719 160 L 94 160 L 94 242 L 13.261719 242 Z M 13.261719 160 " clip-rule="nonzero"/></clipPath><clipPath id="f09ced5af0"><path d="M 129 253 L 249 253 L 249 325.730469 L 129 325.730469 Z M 129 253 " clip-rule="nonzero"/></clipPath></defs><path fill="#ffffff" d="M 128.074219 160.902344 C 122.570312 158.703125 116.703125 161.636719 114.867188 167.140625 L 102.765625 204.921875 C 105.332031 204.921875 107.53125 205.289062 109.734375 206.386719 C 111.933594 207.121094 114.136719 208.589844 115.601562 210.054688 L 133.210938 174.109375 C 135.777344 169.339844 133.210938 163.105469 128.074219 160.902344 Z M 128.074219 160.902344 " fill-opacity="1" fill-rule="nonzero"/><g clip-path="url(#6cdc92a375)"><path fill="#ffffff" d="M 93.226562 206.019531 L 93.960938 203.820312 C 85.523438 201.984375 79.65625 198.316406 78.554688 193.183594 C 77.453125 187.3125 81.855469 181.078125 89.925781 175.941406 C 94.328125 173.007812 93.960938 166.40625 88.824219 164.570312 C 81.855469 162.003906 74.519531 160.535156 66.449219 160.535156 C 37.105469 160.535156 13.261719 178.878906 13.261719 201.253906 C 13.261719 223.628906 37.105469 241.96875 66.449219 241.96875 C 71.585938 241.96875 75.988281 241.601562 80.753906 240.5 C 81.121094 239.765625 81.488281 238.667969 81.855469 237.933594 C 83.324219 235.734375 82.957031 234.265625 82.589844 230.597656 C 82.222656 226.929688 81.488281 222.527344 83.324219 217.757812 C 85.15625 213.355469 88.457031 209.6875 92.492188 207.488281 Z M 28.667969 208.222656 C 25 208.222656 22.433594 205.289062 22.433594 201.984375 C 22.433594 198.316406 25.367188 195.75 28.667969 195.75 C 32.335938 195.75 34.90625 198.683594 34.90625 201.984375 C 34.90625 205.289062 31.96875 208.222656 28.667969 208.222656 Z M 42.609375 176.308594 C 46.277344 176.308594 49.210938 179.242188 49.210938 182.910156 C 49.210938 186.578125 46.277344 189.148438 42.609375 189.148438 C 38.941406 189.148438 36.371094 186.214844 36.371094 182.910156 C 36.003906 179.242188 38.941406 176.308594 42.609375 176.308594 Z M 43.707031 226.929688 C 40.039062 226.929688 37.472656 223.996094 37.472656 220.691406 C 37.472656 217.023438 40.40625 214.457031 43.707031 214.457031 C 47.375 214.457031 50.3125 217.390625 50.3125 220.691406 C 49.945312 223.996094 47.007812 226.929688 43.707031 226.929688 Z M 59.847656 174.84375 C 59.847656 171.175781 62.78125 168.605469 66.082031 168.605469 C 69.75 168.605469 72.320312 171.539062 72.320312 174.84375 C 72.320312 178.511719 69.382812 181.078125 66.082031 181.078125 C 62.78125 181.078125 59.847656 178.511719 59.847656 174.84375 Z M 68.285156 230.964844 C 64.617188 230.964844 62.046875 228.03125 62.046875 224.726562 C 62.046875 221.058594 64.984375 218.125 68.285156 218.125 C 71.953125 218.125 74.519531 221.058594 74.519531 224.726562 C 74.519531 228.394531 71.953125 230.964844 68.285156 230.964844 Z M 68.285156 230.964844 " fill-opacity="1" fill-rule="nonzero"/></g><path fill="#ffffff" d="M 106.433594 214.824219 C 100.5625 212.625 93.960938 215.191406 91.761719 221.058594 C 89.191406 227.296875 94.695312 233.898438 89.558594 242.335938 C 88.824219 243.800781 89.925781 245.636719 91.761719 245.269531 C 103.863281 242.703125 110.46875 235.367188 112.667969 229.496094 C 114.867188 223.628906 111.933594 217.023438 106.433594 214.824219 Z M 106.433594 214.824219 " fill-opacity="1" fill-rule="nonzero"/><path fill="#ffffff" d="M 310.746094 190.613281 C 301.207031 190.613281 293.503906 198.316406 293.503906 207.855469 C 293.503906 217.390625 301.207031 225.09375 310.746094 225.09375 C 320.28125 225.09375 327.984375 217.390625 327.984375 207.855469 C 327.984375 198.316406 320.28125 190.613281 310.746094 190.613281 Z M 311.113281 203.085938 C 308.175781 203.085938 305.976562 205.289062 305.976562 208.222656 C 305.976562 210.054688 304.507812 211.523438 302.675781 211.523438 C 300.839844 211.523438 299.375 210.054688 299.375 208.222656 C 299.375 201.984375 304.507812 196.851562 310.746094 196.851562 C 312.578125 196.851562 314.046875 198.316406 314.046875 200.152344 C 314.046875 201.621094 312.945312 203.085938 311.113281 203.085938 Z M 311.113281 203.085938 " fill-opacity="1" fill-rule="nonzero"/><path fill="#ffffff" d="M 351.460938 173.742188 L 325.050781 173.742188 L 325.050781 170.074219 C 325.050781 166.773438 322.117188 163.835938 318.816406 163.835938 L 302.308594 163.835938 C 299.007812 163.835938 296.074219 166.773438 296.074219 170.074219 L 296.074219 173.742188 L 269.664062 173.742188 C 264.160156 173.742188 259.390625 178.511719 259.390625 184.011719 L 259.390625 231.699219 C 259.390625 237.199219 264.160156 241.96875 269.664062 241.96875 L 351.09375 241.96875 C 356.597656 241.96875 361.363281 237.199219 361.363281 231.699219 L 361.363281 184.011719 C 361.730469 178.144531 356.964844 173.742188 351.460938 173.742188 Z M 275.164062 193.550781 C 272.597656 193.550781 270.394531 191.347656 270.394531 188.78125 C 270.394531 186.214844 272.597656 184.011719 275.164062 184.011719 C 277.730469 184.011719 279.933594 186.214844 279.933594 188.78125 C 279.933594 191.714844 277.730469 193.550781 275.164062 193.550781 Z M 310.746094 233.164062 C 296.804688 233.164062 285.433594 221.792969 285.433594 207.855469 C 285.433594 193.917969 296.804688 182.546875 310.746094 182.546875 C 324.683594 182.546875 336.054688 193.917969 336.054688 207.855469 C 336.421875 221.792969 324.683594 233.164062 310.746094 233.164062 Z M 310.746094 233.164062 " fill-opacity="1" fill-rule="nonzero"/><path fill="#ffffff" d="M 284.335938 147.699219 C 285.800781 150.265625 289.101562 151 291.671875 149.53125 C 294.238281 148.066406 295.707031 144.765625 293.871094 142.195312 C 284.703125 127.15625 272.597656 113.953125 257.925781 104.046875 C 255.355469 102.214844 251.6875 103.3125 250.222656 106.25 C 250.222656 106.617188 249.855469 106.617188 249.855469 106.984375 C 248.753906 109.183594 249.488281 112.117188 251.6875 113.585938 C 265.261719 122.753906 276.265625 134.125 284.335938 147.699219 Z M 284.335938 147.699219 " fill-opacity="1" fill-rule="nonzero"/><path fill="#ffffff" d="M 89.925781 146.964844 C 90.292969 146.964844 90.292969 146.964844 90.660156 146.964844 C 92.859375 147.699219 95.0625 146.597656 96.527344 144.765625 C 104.597656 132.660156 114.867188 122.023438 126.605469 113.585938 C 128.808594 112.117188 129.542969 109.183594 128.441406 106.984375 C 128.441406 106.617188 128.074219 106.617188 128.074219 106.25 C 126.605469 103.3125 122.9375 102.214844 120.371094 104.046875 C 107.164062 113.21875 95.792969 124.957031 86.992188 138.527344 C 84.789062 141.828125 86.257812 145.863281 89.925781 146.964844 Z M 89.925781 146.964844 " fill-opacity="1" fill-rule="nonzero"/><g clip-path="url(#f09ced5af0)"><path fill="#ffffff" d="M 220.511719 254.441406 L 218.308594 253.707031 L 216.476562 254.804688 C 208.40625 260.308594 198.867188 263.242188 189.332031 263.242188 C 179.425781 263.242188 169.890625 260.308594 162.1875 254.804688 L 160.351562 253.707031 L 158.152344 254.441406 C 140.914062 260.308594 129.542969 276.816406 129.542969 294.789062 L 129.542969 318.265625 C 129.542969 322.667969 132.84375 325.96875 137.246094 325.96875 L 241.050781 325.96875 C 245.453125 325.96875 248.753906 322.667969 248.753906 318.265625 L 248.753906 294.421875 C 248.753906 276.816406 237.382812 260.308594 220.511719 254.441406 Z M 220.511719 254.441406 " fill-opacity="1" fill-rule="nonzero"/></g><path fill="#ffffff" d="M 154.117188 215.558594 C 154.117188 235 169.890625 250.773438 189.332031 250.773438 C 208.773438 250.773438 224.542969 235 224.542969 215.558594 C 224.542969 196.117188 208.773438 180.34375 189.332031 180.34375 C 169.890625 180.34375 154.117188 196.117188 154.117188 215.558594 Z M 154.117188 215.558594 " fill-opacity="1" fill-rule="nonzero"/><path fill="#ffffff" d="M 185.664062 143.296875 C 187.496094 145.128906 190.796875 145.128906 193 143.296875 L 235.183594 101.480469 C 248.019531 88.640625 245.820312 65.898438 227.480469 56.730469 C 216.84375 50.859375 203.636719 54.160156 194.832031 62.597656 L 189.332031 68.101562 L 183.09375 61.863281 C 170.257812 49.027344 147.515625 51.226562 138.34375 69.566406 C 132.84375 80.207031 136.144531 93.410156 144.582031 102.214844 Z M 185.664062 143.296875 " fill-opacity="1" fill-rule="nonzero"/></svg>