<svg xmlns="http://www.w3.org/2000/svg" xmlns:xlink="http://www.w3.org/1999/xlink" width="500" zoomAndPan="magnify" viewBox="0 0 375 374.999991" height="500" preserveAspectRatio="xMidYMid meet" version="1.0"><defs><clipPath id="a32b015ab3"><path d="M 27 112 L 204 112 L 204 263.929688 L 27 263.929688 Z M 27 112 " clip-rule="nonzero"/></clipPath><clipPath id="5ee02f5a26"><path d="M 171 112 L 348 112 L 348 263.929688 L 171 263.929688 Z M 171 112 " clip-rule="nonzero"/></clipPath></defs><g clip-path="url(#a32b015ab3)"><path fill="#ffffff" d="M 139.515625 249.636719 C 138.90625 250.238281 138.046875 250.5 137.203125 250.347656 C 118.925781 247.011719 99.066406 240.867188 82.722656 233.492188 C 69.761719 227.640625 52.984375 218.308594 46.679688 207.054688 C 40.21875 195.527344 38.5 182.179688 42.082031 171.351562 C 44.492188 164.074219 49.195312 158.550781 55.324219 155.808594 C 56.296875 155.375 57.320312 154.988281 58.371094 154.667969 C 74.234375 149.792969 96.066406 158.734375 109.152344 175.464844 C 110.789062 177.558594 113.597656 178.4375 116.136719 177.660156 C 118.675781 176.878906 120.503906 174.574219 120.683594 171.921875 C 122.121094 150.730469 135.171875 131.074219 151.046875 126.199219 C 152.082031 125.878906 153.140625 125.621094 154.1875 125.4375 C 160.804688 124.261719 167.796875 126.191406 173.878906 130.863281 C 183.902344 138.5625 190.128906 150.957031 190.128906 163.210938 C 190.128906 169.550781 191.746094 176.898438 194.683594 183.898438 C 195.515625 185.890625 196.457031 187.941406 197.496094 190.039062 C 201.828125 179.324219 203.675781 169.875 202.992188 161.886719 C 201.558594 145.164062 193.617188 129.738281 181.746094 120.617188 C 172.75 113.707031 162.164062 110.902344 151.9375 112.714844 C 150.359375 112.992188 148.777344 113.378906 147.226562 113.851562 C 137.320312 116.898438 128.316406 123.738281 121.183594 133.632812 C 116.8125 139.703125 113.414062 146.503906 111.078125 153.847656 C 110.820312 154.671875 110.171875 155.3125 109.347656 155.5625 C 108.523438 155.816406 107.628906 155.648438 106.953125 155.117188 C 100.902344 150.351562 94.269531 146.628906 87.242188 144.0625 C 80.589844 141.628906 73.988281 140.40625 67.679688 140.40625 C 63.128906 140.40625 58.734375 141.042969 54.578125 142.320312 C 53.03125 142.792969 51.507812 143.367188 50.050781 144.019531 C 40.566406 148.257812 33.382812 156.527344 29.820312 167.292969 C 25.113281 181.507812 27.203125 198.730469 35.410156 213.371094 C 50.738281 240.722656 106.148438 258.558594 139.65625 263.871094 C 140.621094 264.023438 141.625 263.953125 142.5625 263.667969 C 143.496094 263.378906 144.371094 262.875 145.085938 262.203125 C 159.324219 248.84375 173.941406 231.214844 184.433594 214.777344 C 181.785156 210.464844 179.328125 206.105469 177.140625 201.753906 C 167.679688 217.921875 153.886719 235.515625 139.515625 249.636719 Z M 139.515625 249.636719 " fill-opacity="1" fill-rule="nonzero"/></g><g clip-path="url(#5ee02f5a26)"><path fill="#ffffff" d="M 345.1875 167.292969 C 341.621094 156.527344 334.4375 148.257812 324.957031 144.015625 C 323.496094 143.367188 321.976562 142.792969 320.429688 142.320312 C 310.511719 139.273438 299.21875 139.875 287.765625 144.0625 C 280.738281 146.628906 274.105469 150.351562 268.050781 155.117188 C 267.375 155.648438 266.480469 155.816406 265.65625 155.5625 C 264.835938 155.3125 264.1875 154.671875 263.925781 153.847656 C 261.59375 146.503906 258.191406 139.703125 253.820312 133.632812 C 246.691406 123.738281 237.6875 116.898438 227.78125 113.851562 C 226.230469 113.375 224.644531 112.992188 223.070312 112.714844 C 212.84375 110.902344 202.257812 113.707031 193.257812 120.617188 C 192.59375 121.128906 191.9375 121.664062 191.292969 122.21875 C 194.207031 125.324219 196.808594 128.8125 199.054688 132.589844 C 199.730469 131.980469 200.421875 131.40625 201.128906 130.863281 C 207.210938 126.191406 214.203125 124.265625 220.816406 125.433594 C 221.867188 125.621094 222.921875 125.878906 223.960938 126.199219 C 239.832031 131.074219 252.886719 150.730469 254.320312 171.921875 C 254.5 174.574219 256.328125 176.878906 258.871094 177.660156 C 261.410156 178.4375 264.21875 177.558594 265.855469 175.464844 C 278.941406 158.734375 300.773438 149.792969 316.636719 154.667969 C 317.683594 154.988281 318.707031 155.371094 319.679688 155.808594 C 325.8125 158.550781 330.515625 164.070312 332.925781 171.351562 C 336.507812 182.179688 334.789062 195.527344 328.328125 207.054688 C 322.023438 218.308594 305.246094 227.640625 292.285156 233.492188 C 275.9375 240.863281 256.082031 247.007812 237.804688 250.347656 C 236.960938 250.5 236.101562 250.234375 235.492188 249.636719 C 215.921875 230.40625 198.003906 205.398438 189.839844 185.929688 C 185.738281 176.148438 184.878906 168.175781 184.878906 163.207031 C 184.878906 154.582031 181.511719 147.128906 177.207031 141.582031 C 174.398438 147.929688 172.617188 154.875 172.015625 161.886719 C 169.34375 193.125 205.183594 238.992188 229.921875 262.203125 C 230.636719 262.875 231.507812 263.378906 232.445312 263.667969 C 233.378906 263.953125 234.386719 264.023438 235.351562 263.871094 C 268.855469 258.558594 324.269531 240.722656 339.597656 213.371094 C 347.800781 198.730469 349.890625 181.507812 345.1875 167.292969 Z M 345.1875 167.292969 " fill-opacity="1" fill-rule="nonzero"/></g></svg>