<svg xmlns="http://www.w3.org/2000/svg" xmlns:xlink="http://www.w3.org/1999/xlink" width="500" zoomAndPan="magnify" viewBox="0 0 375 374.999991" height="500" preserveAspectRatio="xMidYMid meet" version="1.0"><defs><clipPath id="741ba9ab64"><path d="M 24.097656 174.160156 L 201.945312 174.160156 L 201.945312 312 L 24.097656 312 Z M 24.097656 174.160156 " clip-rule="nonzero"/></clipPath></defs><path fill="#ffffff" d="M 170.945312 83.992188 C 170.945312 82.253906 172.335938 80.894531 174.042969 80.894531 L 201.164062 80.894531 C 202.902344 80.894531 204.261719 82.253906 204.261719 83.992188 L 204.261719 97.394531 L 170.945312 97.394531 Z M 100.894531 234.429688 L 175.402344 234.429688 C 176.097656 230.289062 178.5 226.875 181.597656 224.125 L 184 222.386719 C 188.457031 218.625 194.304688 216.566406 200.472656 216.566406 C 204.957031 216.566406 209.066406 217.582031 213.207031 219.636719 L 219.027344 223.082031 L 236.539062 207.277344 L 210.457031 182.207031 C 206.316406 178.097656 204.261719 172.25 205.304688 166.402344 C 206.316406 160.585938 210.109375 155.777344 215.234375 153.027344 C 220.066406 150.625 225.21875 149.585938 230.375 149.585938 C 235.875 149.585938 241.027344 150.945312 246.179688 153.347656 L 279.496094 169.847656 L 292.523438 158.183594 L 292.523438 115.570312 C 292.523438 105.613281 284.273438 97.710938 274.691406 97.710938 L 222.46875 97.710938 L 222.46875 83.992188 C 222.46875 72.296875 212.832031 63.03125 201.511719 63.03125 L 174.390625 63.03125 C 162.695312 63.03125 153.433594 72.644531 153.433594 83.992188 L 153.433594 97.394531 L 100.894531 97.394531 C 90.933594 97.394531 83.03125 105.613281 83.03125 115.222656 L 83.03125 216.21875 C 82.683594 226.527344 90.933594 234.429688 100.894531 234.429688 " fill-opacity="1" fill-rule="nonzero"/><path fill="#ffffff" d="M 341.992188 149.585938 C 329.980469 149.933594 318.632812 154.390625 309.6875 162.292969 L 281.523438 187.011719 L 239.636719 166.402344 C 233.789062 163.652344 226.929688 163.652344 221.429688 166.402344 C 219.027344 167.445312 218.707031 170.542969 220.734375 172.25 L 257.84375 208.316406 L 220.734375 240.941406 L 205.972656 232.691406 C 201.859375 230.289062 196.707031 230.984375 192.914062 233.734375 L 190.511719 235.441406 C 188.804688 236.832031 188.804688 239.550781 190.511719 240.59375 L 210.804688 256.398438 C 213.875 258.800781 216.277344 261.898438 217.984375 265.316406 L 229.332031 288.328125 C 230.375 290.382812 232.777344 290.730469 234.484375 289.371094 L 236.886719 287.660156 C 240.679688 284.566406 242.039062 279.757812 240.679688 275.273438 L 236.191406 259.148438 L 275.703125 229.625 L 303.175781 273.566406 C 304.535156 275.621094 307.660156 275.96875 309.023438 273.910156 C 312.785156 268.757812 314.175781 262.246094 312.785156 256.050781 L 301.121094 211.066406 L 330.992188 188.75 C 340.632812 181.511719 347.144531 171.238281 349.894531 159.890625 C 351.257812 154.390625 347.144531 149.585938 341.992188 149.585938 " fill-opacity="1" fill-rule="nonzero"/><g clip-path="url(#741ba9ab64)"><path fill="#ffffff" d="M 181.597656 265.664062 L 181.25 266.007812 C 172.335938 271.507812 163.042969 276.660156 153.433594 280.773438 C 143.820312 284.910156 133.863281 287.980469 123.90625 290.066406 C 113.949219 292.121094 103.296875 292.816406 93.335938 291.773438 C 83.378906 290.730469 73.421875 288.328125 64.476562 283.871094 C 55.910156 279.410156 48.007812 272.871094 43.171875 264.300781 C 38.367188 256.050781 35.617188 246.09375 36.3125 236.136719 C 37.007812 226.179688 40.105469 215.875 44.910156 206.582031 C 49.714844 197.316406 56.226562 188.402344 63.464844 180.5 C 64.824219 179.109375 64.824219 176.707031 63.464844 175.347656 C 62.074219 173.957031 59.671875 173.957031 58.3125 175.347656 C 50.0625 183.25 42.507812 192.164062 36.660156 202.125 C 30.464844 212.082031 26.007812 223.429688 24.644531 235.441406 C 22.910156 247.453125 25.339844 260.507812 31.160156 271.507812 C 37.007812 282.828125 46.269531 291.773438 56.921875 298.285156 C 67.574219 304.828125 79.589844 308.589844 91.28125 310.675781 C 103.296875 312.382812 115.308594 312.382812 127.320312 310.992188 C 139.363281 309.632812 150.683594 306.535156 162.027344 302.773438 C 173.347656 298.980469 184 293.828125 194.304688 288.328125 C 194.652344 288.328125 194.652344 287.980469 195 287.980469 C 200.816406 284.21875 202.902344 276.660156 199.109375 270.816406 C 195.316406 263.953125 187.792969 261.898438 181.597656 265.664062 " fill-opacity="1" fill-rule="nonzero"/></g></svg>