<?xml version="1.0" ?>
<!-- Uploaded to: SVG Repo, www.svgrepo.com, Generator: SVG Repo Mixer Tools -->
<svg width="800px" height="800px" viewBox="0 0 64 64" id="Layer_1" version="1.1" xml:space="preserve" xmlns="http://www.w3.org/2000/svg" xmlns:xlink="http://www.w3.org/1999/xlink">
<style type="text/css">
	.st0{fill:#FFFFFF;}
	.st1{fill:#101820;}
</style>
<g>
<g>
<circle class="st0" cx="32" cy="32" r="32"/>
</g>
<g>
<path class="st1" d="M56,27.5h-3c-0.276,0-0.5-0.224-0.5-0.5v-1c0-1.378-1.121-2.5-2.5-2.5s-2.5,1.122-2.5,2.5v1    c0,0.276-0.224,0.5-0.5,0.5s-0.5-0.224-0.5-0.5v-0.5c0-0.551-0.448-1-1-1s-1,0.449-1,1V27c0,0.276-0.224,0.5-0.5,0.5h-3    c-0.276,0-0.5-0.224-0.5-0.5s0.224-0.5,0.5-0.5h2.5c0-1.103,0.897-2,2-2c0.441,0,0.851,0.144,1.182,0.387    C47.147,23.501,48.459,22.5,50,22.5c1.93,0,3.5,1.57,3.5,3.5v0.5H56c0.276,0,0.5,0.224,0.5,0.5S56.276,27.5,56,27.5z"/>
</g>
<g>
<path class="st1" d="M18,19.5h-5c-0.276,0-0.5-0.224-0.5-0.5s0.224-0.5,0.5-0.5h5c0.276,0,0.5,0.224,0.5,0.5S18.276,19.5,18,19.5z    "/>
</g>
<g>
<path class="st1" d="M48,46.5h-6c-0.276,0-0.5-0.224-0.5-0.5s0.224-0.5,0.5-0.5h6c0.276,0,0.5,0.224,0.5,0.5S48.276,46.5,48,46.5z    "/>
</g>
<g>
<path class="st1" d="M32,28.5c-3.033,0-5.5-2.467-5.5-5.5s2.467-5.5,5.5-5.5c3.032,0,5.5,2.467,5.5,5.5S35.032,28.5,32,28.5z     M32,18.5c-2.481,0-4.5,2.019-4.5,4.5s2.019,4.5,4.5,4.5s4.5-2.019,4.5-4.5S34.481,18.5,32,18.5z"/>
</g>
<g>
<path class="st1" d="M32,24.5c-1.908,0-3.71-0.397-5.214-1.148c-0.172-0.086-0.28-0.264-0.276-0.457    C26.567,19.92,29.03,17.5,32,17.5c2.97,0,5.433,2.42,5.49,5.395c0.004,0.193-0.104,0.371-0.276,0.457    C35.711,24.103,33.908,24.5,32,24.5z M27.527,22.597c2.589,1.168,6.361,1.168,8.946,0C36.266,20.31,34.322,18.5,32,18.5    C29.677,18.5,27.734,20.31,27.527,22.597z"/>
</g>
<g>
<path class="st1" d="M33.721,18.823c-0.058,0-0.116-0.01-0.173-0.031c-1.069-0.393-2.029-0.393-3.096,0    c-0.166,0.061-0.354,0.03-0.492-0.084s-0.204-0.292-0.174-0.467l0.721-4.323C30.547,13.677,30.755,13.5,31,13.5h2    c0.244,0,0.453,0.177,0.493,0.418l0.721,4.323c0.029,0.175-0.037,0.354-0.174,0.467C33.948,18.783,33.835,18.823,33.721,18.823z     M32,17.5c0.36,0,0.727,0.041,1.097,0.121l-0.52-3.121h-1.153l-0.52,3.121C31.272,17.541,31.639,17.5,32,17.5z"/>
</g>
<g>
<path class="st1" d="M34,16.5h-4c-0.276,0-0.5-0.224-0.5-0.5s0.224-0.5,0.5-0.5h4c0.276,0,0.5,0.224,0.5,0.5S34.276,16.5,34,16.5z    "/>
</g>
<g>
<path class="st1" d="M32,14.5c-0.276,0-0.5-0.224-0.5-0.5V8c0-0.276,0.224-0.5,0.5-0.5s0.5,0.224,0.5,0.5v6    C32.5,14.276,32.276,14.5,32,14.5z"/>
</g>
<g>
<path class="st1" d="M28.642,54.5c-0.044,0-0.089-0.006-0.133-0.018c-0.266-0.073-0.422-0.349-0.349-0.615    c1.839-6.673,2.069-17.05,2.193-22.625l0.028-1.254c0.007-0.276,0.225-0.478,0.512-0.488c0.276,0.007,0.494,0.236,0.488,0.512    l-0.029,1.252c-0.125,5.619-0.356,16.076-2.229,22.869C29.063,54.354,28.861,54.5,28.642,54.5z"/>
</g>
<g>
<path class="st1" d="M35.358,54.5c-0.22,0-0.421-0.146-0.482-0.367c-1.871-6.789-2.094-16.848-2.228-22.858l-0.029-1.262    c-0.006-0.276,0.212-0.505,0.488-0.512c0.284,0.017,0.505,0.212,0.512,0.488l0.028,1.265c0.124,5.573,0.354,15.946,2.193,22.615    c0.073,0.266-0.083,0.542-0.35,0.615C35.447,54.494,35.402,54.5,35.358,54.5z"/>
</g>
<g>
<path class="st1" d="M32,32.5c-2.182,0-3.307-1.1-3.354-1.146c-0.195-0.195-0.195-0.512,0-0.707    c0.196-0.194,0.509-0.195,0.704-0.003l0,0C29.387,30.679,30.254,31.5,32,31.5c1.745,0,2.613-0.821,2.649-0.856    c0.198-0.191,0.515-0.187,0.705,0.007c0.193,0.196,0.193,0.509-0.001,0.703C35.307,31.4,34.182,32.5,32,32.5z"/>
</g>
<g>
<path class="st1" d="M19.732,37.5c-0.276,0-0.5-0.224-0.5-0.5c0-0.827-0.673-1.5-1.5-1.5c-0.534,0-1.032,0.287-1.3,0.75    c-0.138,0.239-0.444,0.32-0.683,0.182c-0.239-0.138-0.321-0.444-0.182-0.683c0.445-0.771,1.275-1.249,2.165-1.249    c1.378,0,2.5,1.122,2.5,2.5C20.232,37.276,20.009,37.5,19.732,37.5z"/>
</g>
<g>
<path class="st1" d="M19.732,37.5c-0.276,0-0.5-0.224-0.5-0.5c0-1.378,1.122-2.5,2.5-2.5c0.89,0,1.719,0.479,2.165,1.249    c0.139,0.239,0.057,0.545-0.182,0.683c-0.241,0.138-0.546,0.057-0.683-0.182c-0.268-0.463-0.766-0.75-1.299-0.75    c-0.827,0-1.5,0.673-1.5,1.5C20.232,37.276,20.009,37.5,19.732,37.5z"/>
</g>
<g>
<path class="st1" d="M20.732,37.5h-2c-0.276,0-0.5-0.224-0.5-0.5s0.224-0.5,0.5-0.5h2c0.276,0,0.5,0.224,0.5,0.5    S21.009,37.5,20.732,37.5z"/>
</g>
</g>
</svg>