<?xml version="1.0" encoding="iso-8859-1"?>
<!-- Uploaded to: SVG Repo, www.svgrepo.com, Generator: SVG Repo Mixer Tools -->
<!DOCTYPE svg PUBLIC "-//W3C//DTD SVG 1.1//EN" "http://www.w3.org/Graphics/SVG/1.1/DTD/svg11.dtd">
<svg fill="#000000" height="800px" width="800px" version="1.1" id="Capa_1" xmlns="http://www.w3.org/2000/svg" xmlns:xlink="http://www.w3.org/1999/xlink" 
	 viewBox="0 0 213.417 213.417" xml:space="preserve">
<path d="M185.542,213.417H27.875c-1.381,0-2.5-1.119-2.5-2.5c0-5.974,4.86-10.833,10.833-10.833h34.976V2.5
	c0-1.381,1.119-2.5,2.5-2.5s2.5,1.119,2.5,2.5v18.132c4.492,3.82,24.264,21.403,40.531,47.945h10.312c0.012,0.001,0.023,0,0.034,0
	h7.315c1.381,0,2.5,1.119,2.5,2.5s-1.119,2.5-2.5,2.5h-6.151l-5.143,6.258c2.497,4.816,4.824,9.859,6.898,15.116
	c15.806,40.061,9.092,92.141,7.054,105.132h40.175c5.974,0,10.833,4.86,10.833,10.833
	C188.042,212.297,186.923,213.417,185.542,213.417z M30.938,208.417h151.54c-0.938-1.969-2.947-3.333-5.27-3.333h-64.495
	c-0.038,0.001-0.077,0.001-0.116,0H83.605c-0.018,0-0.034,0-0.052,0H36.208C33.885,205.083,31.876,206.447,30.938,208.417z
	 M116.013,200.083h15.947c1.726-11.016,8.854-64.048-6.632-103.297c-1.737-4.402-3.658-8.654-5.708-12.74l-1.746,2.125
	c-0.876,1.067-2.452,1.221-3.519,0.344c-1.066-0.877-1.221-2.452-0.344-3.519l3.094-3.766c-1.045-1.925-2.115-3.81-3.205-5.653
	h-7.827c6.171,15.153,11.247,32.552,12.747,50.857C122.461,168.844,118.126,191.979,116.013,200.083z M89.021,200.083h21.795
	c1.003-3.568,3.234-13.151,4.068-30.127L89.021,200.083z M76.184,200.083h4.896v-34.687h-4.896V200.083z M86.08,165.396v30.436
	l26.128-30.436H86.08z M88.645,160.396h26.533c0.126-9.282-0.164-20.276-1.148-33.129L88.645,160.396z M76.184,160.396h4.896V123.16
	h-4.896V160.396z M86.08,123.16v32.364l24.798-32.364H86.08z M87.202,118.16h25.923c-1.876-14.327-5.871-27.967-10.672-40.21
	L87.202,118.16z M76.184,118.16h4.896V36.6c-1.839-2.837-3.5-5.266-4.896-7.24V118.16z M86.08,73.577v33.442l12.684-33.442H86.08z
	 M119.673,73.577c0.284,0.497,0.566,0.997,0.846,1.5l1.232-1.5H119.673z M103.964,68.577h6.871
	c-7.068-11.129-14.679-20.529-21.267-27.803C94.156,48.401,99.28,57.843,103.964,68.577z M86.08,68.577h12.435
	c-4.074-9.09-8.438-17.181-12.435-23.916V68.577z"/>
</svg>